# xmcd CD database file generated by OrangeCD 5.2
#
# Track frame offsets:
#	150
#	14747
#	29500
#	47660
#	69499
#	85485
#	110812
#	123114
#	139437
#	152711
#	161636
#	176136
#	198384
#
# Disc length: 2925 seconds
#
# Revision: 0
# Processed by: cddbd v1.5.1PL0 Copyright (c) Steve Scherf et al.
# Submitted via: OrangeCD 5.2
#
DISCID=be0b6b0d
DTITLE=Mojo Blues Band - Southern Blues Cruise
DYEAR=1999
DGENRE=Blues
TTITLE0=Where Did You Go Last Night
TTITLE1=Wee Baby Blues
TTITLE2=You Can't Win 'Em All
TTITLE3=Baby You Don't Have To Go
TTITLE4=I Know She Didn't Want Me
TTITLE5=I Wonder Why
TTITLE6=Arkansas
TTITLE7=The Fisherman
TTITLE8=Let The Doorbell Ring
TTITLE9=I Ain't Never
TTITLE10=Rocket In My Pocket
TTITLE11=Sunnyland Train
TTITLE12=All Shucks
EXTD=
EXTT0=
EXTT1=
EXTT2=
EXTT3=
EXTT4=
EXTT5=
EXTT6=
EXTT7=
EXTT8=
EXTT9=
EXTT10=
EXTT11=
EXTT12=
PLAYORDER=
